<?xml version="1.0" standalone="no"?><!DOCTYPE svg PUBLIC "-//W3C//DTD SVG 1.1//EN" "http://www.w3.org/Graphics/SVG/1.1/DTD/svg11.dtd"><svg t="1512377633167" class="icon" style="" viewBox="0 0 1024 1024" version="1.1" xmlns="http://www.w3.org/2000/svg" p-id="3903" xmlns:xlink="http://www.w3.org/1999/xlink" width="200" height="200"><defs><style type="text/css"></style></defs><path d="M903.407 522.615c48.828-72.772 84.6-149.845 91.7-236.39-32.598 36.864-66.8 72.26-104.5 104.397-34.458 32.802-81.442 39.202-133 36.062-64.734 1.177-126.02-20.275-182.494-73.49 37.393-13.584 34.235-35.788 25.429-69.836-9.438-36.574 4.864-90.351 22.87-146.842-65.178 31.147-118.153 93.577-168.585 162.51-67.14 4.232-132.898 16.247-197.189 36.436-53.691 23.092-102.144 57.43-148.872 91.597-16.81 12.288-33.621 21.658-50.057 34.526-20.548 16.094-39.611 30.157-40.567 57.907-0.444 12.527-0.649 18.21-1.075 30.703 8.977 1.52 13.073 7.22 13.807 15.753h-7.885c8.874 38.536 21.504 69.24 42.393 82.739 63.215 56.986 139.537 93.832 231.697 106.376 80.521 8.483 155.341-1.774 221.833-39.406 20.992 67.805 48.009 117.81 83.797 141.824 3.328-64.359-6.468-125.082 80.845-212.736 31.693-22.63 60.211-46.49 51.268-84.702 49.425-0.649 151.825 86.357 272.111 202.888-23.176-81.032-55.33-161.314-103.526-240.316z m-795.921 4.028c-10.94 0-19.797-10.376-19.797-23.176s8.874-23.177 19.797-23.177 19.797 10.377 19.797 23.177-8.857 23.176-19.797 23.176z" p-id="3904"></path></svg>